PathFileType	4	(X/Y/Z)	Kaydara	
DataRate	CameraRate	NumFrames	NumMarkers	Units	OrigDataRate	OrigDataStartFrame	OrigNumFrames	
120.00	120.00	4	72	mm	120.00	34	268	
Frame#	Time	Hips			RightUpLeg			RightLeg			RightFoot			RightFoot_End			LeftUpLeg			LeftLeg			LeftFoot			LeftFoot_End			Spine			Spine1			Spine2			Spine3			Neck			Head			Head_End			RightShoulder			RightArm			RightForeArm			RightHand			RightHandThumb1			RightHandThumb2			RightHandThumb3			RightHandThumb3_End			RightInHandIndex			RightHandIndex1			RightHandIndex2			RightHandIndex3			RightHandIndex3_End			RightInHandMiddle			RightHandMiddle1			RightHandMiddle2			RightHandMiddle3			RightHandMiddle3_End			RightInHandRing			RightHandRing1			RightHandRing2			RightHandRing3			RightHandRing3_End			RightInHandPinky			RightHandPinky1			RightHandPinky2			RightHandPinky3			RightHandPinky3_End			LeftShoulder			LeftArm			LeftForeArm			LeftHand			LeftHandThumb1			LeftHandThumb2			LeftHandThumb3			LeftHandThumb3_End			LeftInHandIndex			LeftHandIndex1			LeftHandIndex2			LeftHandIndex3			LeftHandIndex3_End			LeftInHandMiddle			LeftHandMiddle1			LeftHandMiddle2			LeftHandMiddle3			LeftHandMiddle3_End			LeftInHandRing			LeftHandRing1			LeftHandRing2			LeftHandRing3			LeftHandRing3_End			LeftInHandPinky			LeftHandPinky1			LeftHandPinky2			LeftHandPinky3			LeftHandPinky3_End			
		X1	Y1	Z1	X2	Y2	Z2	X3	Y3	Z3	X4	Y4	Z4	X5	Y5	Z5	X6	Y6	Z6	X7	Y7	Z7	X8	Y8	Z8	X9	Y9	Z9	X10	Y10	Z10	X11	Y11	Z11	X12	Y12	Z12	X13	Y13	Z13	X14	Y14	Z14	X15	Y15	Z15	X16	Y16	Z16	X17	Y17	Z17	X18	Y18	Z18	X19	Y19	Z19	X20	Y20	Z20	X21	Y21	Z21	X22	Y22	Z22	X23	Y23	Z23	X24	Y24	Z24	X25	Y25	Z25	X26	Y26	Z26	X27	Y27	Z27	X28	Y28	Z28	X29	Y29	Z29	X30	Y30	Z30	X31	Y31	Z31	X32	Y32	Z32	X33	Y33	Z33	X34	Y34	Z34	X35	Y35	Z35	X36	Y36	Z36	X37	Y37	Z37	X38	Y38	Z38	X39	Y39	Z39	X40	Y40	Z40	X41	Y41	Z41	X42	Y42	Z42	X43	Y43	Z43	X44	Y44	Z44	X45	Y45	Z45	X46	Y46	Z46	X47	Y47	Z47	X48	Y48	Z48	X49	Y49	Z49	X50	Y50	Z50	X51	Y51	Z51	X52	Y52	Z52	X53	Y53	Z53	X54	Y54	Z54	X55	Y55	Z55	X56	Y56	Z56	X57	Y57	Z57	X58	Y58	Z58	X59	Y59	Z59	X60	Y60	Z60	X61	Y61	Z61	X62	Y62	Z62	X63	Y63	Z63	X64	Y64	Z64	X65	Y65	Z65	X66	Y66	Z66	X67	Y67	Z67	X68	Y68	Z68	X69	Y69	Z69	X70	Y70	Z70	X71	Y71	Z71	X72	Y72	Z72	

34	0.275	2446.805	859.65103	-201.189	2540.603678572606	857.5046007646145	-232.52127933735335	2392.210325480025	468.7696668915925	-293.03376563312275	2417.645633869116	40.34526636461045	-341.2272225897726	2327.667827334825	-34.43978326470667	-179.11117636980802	2363.0477240737846	834.3504201659825	-155.66328688456161	2242.74840208433	436.1444163939262	-104.76421053836636	2190.5396347590245	58.60237720465459	64.23834084637498	2217.8158063250553	14.256931729575347	247.73904684131702	2397.174886414265	979.6437913842659	-261.3966130534412	2341.5934841684393	1042.1576006287378	-310.7497491203822	2275.939849298283	1098.7442599738963	-362.62615263175655	2205.4398961900206	1143.4875526141286	-412.5144812842816	2129.288533553003	1191.6592236346748	-462.387513530125	2087.174078020258	1263.555213341657	-417.3098379637076	2063.9031774104656	1348.1621365493843	-283.56777595527933	2175.0181680741675	1182.625408096953	-466.5456035280657	2257.309390242311	1183.1300601067335	-549.0069418867068	2318.8044218437103	955.3317855350804	-573.9401306024575	2407.048537976868	837.5814046793314	-653.5217781781714	2407.868772907337	838.3869452777983	-669.5603916919902	2396.195840523181	835.379363978725	-685.5983958024776	2389.563255352421	831.3617752695624	-695.3964328358585	2385.314133268029	826.3673113397094	-702.3919176032887	2415.1416089803492	831.2818720987054	-665.9185438343691	2425.1204635192394	815.756354826468	-680.6431521120935	2422.272552778951	806.475272409227	-691.9545163145457	2413.13372515693	804.3125565768345	-699.5451849220426	2400.5993926138817	804.9557292699694	-706.2046286610745	2418.3989498880455	826.6641023600876	-661.7281822013015	2429.896714258784	809.0227951882508	-673.8232539675586	2427.1742754702354	798.3382395020775	-685.56686215091	2416.3334449715207	795.4617034541595	-694.4371186706494	2402.70845635541	796.0355133506146	-701.5839417524008	2420.5568170074544	823.766707341085	-658.3751015564803	2433.0596232569405	805.3503534346075	-666.2547158473948	2431.0611006331496	795.4964550730617	-675.8590278158341	2420.8030488632608	792.4343998997633	-684.0797534904109	2408.086323932435	792.8377366891572	-690.6406566424199	2421.8787976566205	821.122303050048	-654.2165729686784	2434.5376411938455	802.4912004863677	-658.8282303938668	2433.4660006493777	793.836757062668	-665.499618307912	2426.2394897426207	791.2338103136017	-671.0027346387589	2415.1217222111404	791.3784575916982	-676.5308415335339	2133.4985464201172	1171.9166052038984	-423.060167151802	2075.372158073513	1104.6951201791321	-343.2563968625621	2182.4949171852427	965.9536949412303	-518.0720231855574	2374.6708645153785	883.1901024265469	-507.73410682029277	2363.035501182423	889.0069432280033	-514.8189557288132	2365.528197451301	887.2294357276609	-543.6649033474296	2368.297588785612	884.0440989835135	-565.7494463227888	2371.4904222154973	879.722594612887	-585.8680871590775	2364.3830119652675	882.7446983503107	-521.2405661960101	2358.079443171878	874.0380279312687	-555.2827238662087	2360.5817283748283	866.9893568879999	-586.367171062915	2365.566038815515	864.3259687270281	-605.4835342502851	2372.004268935607	863.2808371024718	-621.1652892354881	2367.7407395110595	877.7038521350248	-525.8365679991533	2363.406656584625	866.4853197442916	-561.5241358889268	2366.6092485174972	858.1556905908438	-595.9486906881527	2372.8491870834773	854.6361971138656	-619.2543333499608	2380.003914750868	853.3437798475197	-636.530876797927	2370.209383476934	874.3602607221084	-528.1596782204298	2368.2795791720505	861.3908222985176	-561.9978192643897	2371.5610439897337	853.4961907286832	-592.4631763873944	2377.840226211874	849.7644090803428	-615.1880208819446	2384.690813284206	848.3895398541425	-631.5482775478906	2373.744955438823	870.7936043870134	-530.2862698101012	2373.9363257908935	856.6816594328147	-562.459020186818	2377.337460146251	849.4266316348366	-587.426261846108	2382.2916710484224	846.2531879570506	-604.2784155147107	2388.575501906348	844.775452443867	-618.9301067798627
35	0.283	2446.805	859.65103	-201.189	2540.3798648969696	857.4291760035313	-232.5262147533045	2392.274414110029	468.6290216845842	-292.88618811185705	2418.0781824455207	40.47186960514069	-341.38282721348617	2328.424831823176	-34.4042608869766	-179.35502886855718	2363.2562826288745	834.4220338742855	-155.65812754620796	2243.0632906230635	436.24605405267596	-104.3995691959893	2190.721770766035	58.798861881517325	64.79497202623489	2218.174177827174	14.466038767061685	248.2457088777517	2397.2551346612563	979.6652111227625	-261.39704015331193	2341.71174995036	1042.2301550362658	-310.710683596444	2276.2538342228313	1099.1037794350082	-362.52501165490673	2205.7989028309566	1143.9349148553408	-412.36003366101573	2129.6543766149794	1192.1237204798563	-462.1776419123312	2087.519491198405	1264.0113114957776	-417.13300306755696	2064.1856689154606	1348.6568644647277	-283.44061962465804	2175.3212972874694	1183.0706513479208	-466.31207608220717	2257.468195312065	1183.6738260636664	-548.5528877868803	2319.373525653007	956.2474626148771	-573.3180006081209	2407.5146025447725	839.3528051894959	-653.0676032985003	2408.345108701066	840.2742167800006	-669.0470305480626	2396.6811691806524	837.4049519311515	-685.0995054544849	2390.0468561122843	833.4836214082188	-694.9139403358713	2385.7894591977397	828.5693478975855	-701.9284976990797	2415.5876922045527	833.1793382720235	-665.4160335891943	2425.5174238891505	817.8471416738206	-680.1177654082617	2422.648956080461	808.701696190734	-691.4472003054146	2413.515152328626	806.6089653899007	-699.0643906374883	2400.9969797754356	807.300388126796	-705.756093602016	2418.825658375282	828.5547150895208	-661.2452652878969	2430.265025776112	811.0982628231096	-673.3286128926869	2427.517775661024	800.5601829193714	-685.0946401922195	2416.6818595908753	797.7673471228169	-693.9981913180497	2403.074001089338	798.3935961798096	-701.1809462005468	2420.97089040619	825.6475751649155	-657.9063025017464	2433.4098056602356	807.3885028838807	-665.7867648383428	2431.387319872625	797.6604212547808	-675.4134009570354	2421.1327660110323	794.6781141063195	-683.6677187100591	2408.4315583356497	795.1302902061309	-690.2631048628532	2422.2813096746777	822.9861253320672	-653.7671385011688	2434.8737357993323	804.4889241602356	-658.3904681919753	2433.7795394694976	795.9316472697917	-665.0840725205726	2426.5539504755016	793.3851383640044	-670.6137919866402	2415.448992454956	793.5720521538667	-676.1736547910297	2133.920935433639	1172.384214076556	-422.91782523491054	2075.992557348922	1105.3234430212594	-343.3378451337004	2182.936150478622	966.8180626345023	-517.5619018616728	2374.6877617895734	884.5094215308536	-507.03813009906685	2363.2281038806814	890.6409642492133	-514.2309445859985	2365.8811138702636	889.0133763738671	-543.0353278597752	2368.7334387500323	885.9121365057235	-565.0848838841151	2371.970850709487	881.6433671126066	-585.1691881278637	2364.483291816058	884.3501400451606	-520.6559281991264	2358.224595693248	875.9389503829477	-554.7802916761262	2360.7876170038944	869.0139258975612	-585.8411279544924	2365.8457899160903	866.3760216447876	-604.896991957719	2372.369506451822	865.3173246014878	-620.4977653412232	2367.762773193767	879.2398799396019	-525.2287905957435	2363.430122912762	868.2720269501893	-560.9840486083967	2366.6885566643678	860.0670957535093	-595.3794156812385	2373.012601804568	856.5734456169234	-618.610428028627	2380.2584326869523	855.2637976513087	-635.7975659198579	2370.1745123440496	875.8404607343024	-527.5342530182475	2368.195196751576	863.0494423268788	-561.4200711812083	2371.514670676446	855.2526500523923	-591.8563771194729	2377.869319069669	851.5400342315554	-614.5073163180901	2384.8028846757425	850.1462350265	-630.7825999518925	2373.6469671510217	872.1949289839531	-529.6318402026875	2373.7524214426967	858.2006446088143	-561.8331420727034	2377.1675818239323	851.0062534216253	-586.7712729325955	2382.168896047668	847.8382205361688	-603.5666900380543	2388.5216652004024	846.3387859334946	-618.1414808062835
36	0.292	2446.805	859.65103	-201.189	2540.1530651145467	857.3505284341402	-232.531331688111	2392.330228797008	468.48808599414383	-292.7384996731774	2418.391012381181	40.57849817883186	-341.48853350652405	2329.0631633933876	-34.396988949471506	-179.55602712129934	2363.4669554678458	834.4968551097077	-155.65224676669632	2243.3552411196083	436.3488471270501	-104.10121571993928	2190.8690666088182	59.00237857808078	65.28875548200791	2218.495999305703	14.671855222796804	248.68504801889412	2397.339370494029	979.6868971578253	-261.3998093919885	2341.843967227052	1042.3157679815474	-310.66871553359545	2276.667827347952	1099.597023882765	-362.40993795777985	2206.283929183427	1144.5479622012529	-412.20095827218535	2130.1848188459085	1192.8061130899462	-461.97489921574726	2088.0670694424275	1264.7111470630048	-416.95684232313323	2064.6916675645693	1349.3875366876753	-283.30627832914604	2175.8032161146025	1183.7581842491447	-466.07018067234	2257.8117197582665	1184.4639715841931	-548.0852087253969	2320.0739684974506	957.4245751688333	-572.7350222797618	2408.1279140248	841.3884512582046	-652.6463299381875	2408.918891088046	842.3886349646789	-668.5682916643248	2397.220796330606	839.6405404716364	-684.5962295095862	2390.5586474266806	835.8078394325054	-694.3961273112909	2386.2745816773995	830.9710850995671	-701.400742900373	2416.140602569366	835.3148299144635	-664.937644167058	2425.9748189275574	820.1569618106494	-679.576740872745	2423.0544519172895	811.1402089492256	-690.8813413757251	2413.9070930542944	809.1145514014788	-698.4961699118228	2401.3903141189094	809.8527624057995	-705.1947364549119	2419.371572058686	830.6960393793534	-660.776876080118	2430.713987116373	813.4127772649116	-672.804535889384	2427.909509966421	803.0153411486864	-684.5450083689616	2417.0569498167156	800.3035278645286	-693.4464531770411	2403.45048105144	800.9810234124997	-700.6370821418457	2421.5141044918137	827.7885630995503	-657.4463916062792	2433.8632208425024	809.6843705727402	-665.2837618883798	2431.7904028836574	800.0788221670607	-674.8897952154178	2421.5195534322265	797.1746373367303	-683.1429652898611	2408.819538087912	797.6749836627931	-689.7461732972629	2422.8257026996184	825.1217702265949	-653.3202801521472	2435.33581200454	806.7633460020205	-657.9114872003014	2434.2009980447133	798.3034265606358	-664.5913869589405	2426.963370520785	795.8135337088037	-670.1216233727386	2415.859382697062	796.0429070157521	-675.689193160653	2134.4663086366877	1173.0091680988842	-422.7845190376868	2076.69152232737	1106.0667175600904	-343.43948496435314	2183.47463049935	967.8549131218477	-517.2191845210579	2374.704242551762	885.9687615922854	-506.5070204810106	2363.4273864028683	892.4161920638666	-513.8117371121916	2366.2511916455255	890.9262681124651	-542.5699006841206	2369.1929359861488	887.9000206680139	-564.5790516430025	2372.479638400338	883.675909448983	-584.6226415551131	2364.5874795500213	886.0960518153684	-520.2328285523711	2358.37945718161	877.9737424222566	-554.4254991452073	2361.0099711653447	871.1613862954819	-585.4521353902911	2366.147912216215	868.5396120413616	-604.4432658537871	2372.763152760924	867.4579031616654	-619.9611375269106	2367.7864313310424	880.9147559492994	-524.7770756480144	2363.459635691507	870.190268190561	-560.5835039299659	2366.780967457994	862.097855887893	-594.9374519234505	2373.196092632169	858.6186693459396	-618.0883992609675	2380.539559779359	857.2814064405202	-635.1838714858866	2370.1394728670944	877.4585921559684	-527.0613678396661	2368.1129600234744	864.8388168385908	-560.9769792911143	2371.476262041245	857.1290543018696	-591.3729041875046	2377.912927735956	853.4245240723935	-613.9443415924301	2384.935531219268	852.0019826198072	-630.1323592700948	2373.54682673036	873.7328473461488	-529.1263551299471	2373.5671583258345	859.8490153428264	-561.3375571936697	2377.0004799320627	852.7063330821073	-586.2365416831486	2382.0534217168806	849.5354977991041	-602.9706742385023	2388.480351321109	848.0055963863142	-617.4662647315802
37	0.3	2446.805	859.65103	-201.189	2539.9286179447863	857.2773640352564	-232.53264525232015	2392.383817313167	468.3518108724338	-292.56975253053827	2418.627343065135	40.67716894659926	-341.5399850422942	2329.627285356552	-34.403024562568184	-179.70765021383545	2363.674651804405	834.5653486805933	-155.6512214121241	2243.595024535453	436.4456691983982	-103.90778314757978	2190.961421488721	59.198807011005336	65.6661965396429	2218.7623486977677	14.862772403093716	249.00470530667056	2397.4261937920614	979.711941040296	-261.39821866309904	2341.9903322412742	1042.4202101077374	-310.6157271052495	2277.130265070545	1100.155149001735	-362.27825251965703	2206.8457820457315	1145.2607789023073	-412.0356145484241	2130.8424709109836	1193.6605108101899	-461.77778699274234	2088.781135197507	1265.6102943585458	-416.7797726579611	2065.3858554067397	1350.3081206361792	-283.16191933202845	2176.4247081638423	1184.6378423662982	-465.81780653033337	2258.299906159425	1185.4525033182586	-547.603724030518	2320.8733985192252	958.81432262038	-572.1769378387821	2408.8843226641106	843.6337359825718	-652.2503572927243	2409.588139573796	844.6878605884981	-668.1080990910054	2397.827772856696	842.0470071195527	-684.0665443536768	2391.1237670513515	838.2960384136052	-693.8185530019049	2386.8060989099013	833.5334513795066	-700.7836744105857	2416.803663464416	837.642333937969	-664.4729140481958	2426.5164177715033	822.6446979115779	-679.0107537508422	2423.530763522139	813.7498430492333	-690.2473051137597	2414.3615723836765	811.7875001778744	-697.828598481732	2401.83936907282	812.5697034064647	-704.5053233679031	2420.043882033979	833.0376335490747	-660.3171547943492	2431.272822844851	815.9182771307209	-672.2487610799305	2428.3987428332807	805.6552109813264	-683.9159697859957	2417.520625160915	803.0204316931797	-692.7774327518796	2403.9086064652565	803.7463796029219	-699.9443965960427	2422.195838072004	830.1359988432167	-656.9927536380502	2434.450825338	812.1836850796075	-664.749199127789	2432.3191973430703	802.6963791231537	-674.2925426354744	2422.024681489303	799.867096848577	-682.5077631972373	2409.319914792435	800.41328231572	-689.08901222576	2423.5234675383263	827.4715105490992	-652.876910630748	2435.956382535465	809.253771714555	-657.4000534035905	2434.7777831091344	800.8896272742534	-664.0319247537191	2427.524492467047	798.4548971773371	-669.535534281492	2416.4172177684727	798.7251817344146	-675.0842557202677	2135.0917981357816	1173.7363325061694	-422.65858195164054	2077.429219553725	1106.8745247438098	-343.55914462055205	2184.0792913125015	969.0112906090142	-517.02972614374	2374.7662925602904	887.5542159385018	-506.143872572633	2363.66907188157	894.2813807125473	-513.5319985074326	2366.652428460611	892.8997085964743	-542.2304922383036	2369.678002056752	889.9310035640501	-564.1903477653401	2373.011251853788	885.7395983302767	-584.1862199671959	2364.7433894551577	887.9392195690394	-519.9464027871236	2358.5969338426275	880.0740724803344	-554.1695243757998	2361.2941062302234	873.3537107955887	-585.1457170314012	2366.50400674562	870.7359724241854	-604.0701105529165	2373.19939090572	869.6217529903792	-619.5088816642913	2367.867127953835	882.6963080967754	-524.465130059109	2363.5596907645636	872.1893436701495	-560.2874749079486	2366.9436654911888	864.1882404575667	-594.5828249937086	2373.4407645995807	860.7095731355657	-617.6515501637607	2380.8695692788833	859.3346164765063	-634.6596428681354	2370.1650523863873	879.1908654682695	-526.7312975129582	2368.1068513671225	866.7256508310489	-560.6474398239982	2371.5144069474195	859.0858492549344	-590.9886220969933	2378.024650194709	855.3767071645678	-613.4788023702887	2385.1248904335735	853.9163033847584	-629.5837385936126	2373.5103107338086	875.394434820748	-528.7691354572016	2373.4619441717055	861.6116154620473	-560.9663861746616	2376.9147097100613	854.5092592987672	-585.8158082137373	2382.0135797404205	851.3274662064221	-602.4879006367522	2388.5048320118967	849.7596553521779	-616.9082987554865
